# xmcd
#
# Track frame offsets:
# 150
# 18784
# 33977
# 56089
# 71629
# 89638
# 106920
# 127864
# 141426
#
# Disc length: 2023 seconds
#
#
# Revision: 0
# Processed by: cddbd v1.4PL0 Copyright (c) Steve Scherf et al.
# Submitted via: FreeRIP 2.35 
#
DISCID=7807e509
DTITLE=Skoller, Matthew Lost Trio - Tap Root
DYEAR=2003
DGENRE=Blues
TTITLE0=Mighty Long Time
TTITLE1=Mopper's Blues
TTITLE2=Lonesome Apartment
TTITLE3=Baker Shop Boogie
TTITLE4=Please Throw This Poor Dog a Bone
TTITLE5=Worried Life Blues
TTITLE6=Walking Blues
TTITLE7=Must've Been The Devil
TTITLE8=After Last Call
EXTD=
EXTT0=
EXTT1=
EXTT2=
EXTT3=
EXTT4=
EXTT5=
EXTT6=
EXTT7=
EXTT8=
PLAYORDER=
